<svg width="26" height="30" viewBox="0 0 26 30" fill="none" xmlns="http://www.w3.org/2000/svg">
<mask id="mask0_85_152" style="mask-type:luminance" maskUnits="userSpaceOnUse" x="0" y="0" width="26" height="30">
<path d="M25.2248 0H0V30H25.2248V0Z" fill="white"/>
</mask>
<g mask="url(#mask0_85_152)">
<path d="M25.2248 21.9588V25.1607C25.2248 27.7763 23.1492 29.9799 20.5336 30.0013C18.2283 30.0188 16.2996 28.3878 15.8601 26.218C15.8614 26.1816 15.8614 26.1439 15.8614 26.1075V23.7431C15.8614 23.3652 15.8275 22.9947 15.7647 22.6356C15.5349 21.3373 14.9083 20.1758 14.0131 19.283C12.8579 18.1278 11.2544 17.4184 9.48644 17.4372L9.45881 17.4649V25.2712C9.45881 27.883 7.34053 30.0013 4.72878 30.0013C4.68358 30.0013 4.63712 30.0013 4.59191 29.9975C2.3669 29.936 0.527373 28.3363 0.0954294 26.2243C0.0339026 25.9154 0 25.5964 0 25.2712V4.88324C0 2.20745 2.17228 -0.0175667 4.84681 0.0477271C6.10623 0.0778628 7.24259 0.601469 8.07383 1.43145C8.93019 2.28781 9.45881 3.46812 9.45881 4.77525V9.81041C9.45881 9.82799 9.47514 9.84054 9.49146 9.83552C10.5186 9.5643 11.5972 9.4199 12.7072 9.4199C13.8172 9.4199 14.7853 9.54923 15.7634 9.79534C18.0173 10.3554 20.0326 11.5231 21.6248 13.1153C21.7052 13.1956 21.7843 13.2785 21.8634 13.3601C24.0545 15.6718 25.2235 18.7707 25.2235 21.9576L25.2248 21.9588Z" fill="#F29900"/>
<path d="M25.1205 5.02511C25.162 5.57257 25.1607 6.12631 25.1582 6.67378C25.1482 9.17001 25.1381 11.4992 25.1281 13.9867C25.1243 14.8832 24.5392 14.5417 24.327 14.1951C24.3245 14.1914 24.3232 14.1876 24.3207 14.1838C23.5811 12.9533 22.613 11.8659 21.4892 10.9744C20.9204 10.5236 20.3114 10.123 19.6723 9.77649C18.993 9.40733 18.2459 9.16499 17.5841 8.76443C14.5542 6.93118 14.4726 2.78628 17.289 0.867648C18.5271 0.0251073 20.1519 -0.227279 21.5834 0.212199C23.0148 0.651676 24.2215 1.77674 24.7476 3.1793C24.9699 3.77071 25.0728 4.39352 25.1205 5.02511Z" fill="#E60121"/>
</g>
</svg>
